<svg width="40" height="46" viewBox="0 0 40 46" fill="none" xmlns="http://www.w3.org/2000/svg">
<path d="M6.25 34.5C5.88889 34.5 5.59028 34.3642 5.35417 34.0927C5.11806 33.8212 5 33.4778 5 33.0625C5 32.6472 5.11806 32.3038 5.35417 32.0323C5.59028 31.7608 5.88889 31.625 6.25 31.625H33.75C34.1111 31.625 34.4097 31.7608 34.6458 32.0323C34.8819 32.3038 35 32.6472 35 33.0625C35 33.4778 34.8819 33.8212 34.6458 34.0927C34.4097 34.3642 34.1111 34.5 33.75 34.5H6.25ZM6.25 24.4375C5.88889 24.4375 5.59028 24.3017 5.35417 24.0302C5.11806 23.7587 5 23.4153 5 23C5 22.5847 5.11806 22.2413 5.35417 21.9698C5.59028 21.6983 5.88889 21.5625 6.25 21.5625H33.75C34.1111 21.5625 34.4097 21.6983 34.6458 21.9698C34.8819 22.2413 35 22.5847 35 23C35 23.4153 34.8819 23.7587 34.6458 24.0302C34.4097 24.3017 34.1111 24.4375 33.75 24.4375H6.25ZM6.25 14.375C5.88889 14.375 5.59028 14.2392 5.35417 13.9677C5.11806 13.6962 5 13.3528 5 12.9375C5 12.5222 5.11806 12.1788 5.35417 11.9073C5.59028 11.6358 5.88889 11.5 6.25 11.5H33.75C34.1111 11.5 34.4097 11.6358 34.6458 11.9073C34.8819 12.1788 35 12.5222 35 12.9375C35 13.3528 34.8819 13.6962 34.6458 13.9677C34.4097 14.2392 34.1111 14.375 33.75 14.375H6.25Z" fill="#F4CFE9"/>
</svg>
