<svg width="40" height="40" viewBox="0 0 40 40" fill="none" xmlns="http://www.w3.org/2000/svg">
<path d="M25.0003 33.3332C21.2781 33.3332 18.1253 32.0415 15.542 29.4582C12.9587 26.8748 11.667 23.7221 11.667 19.9998C11.667 16.2776 12.9587 13.1248 15.542 10.5415C18.1253 7.95817 21.2781 6.6665 25.0003 6.6665C28.7225 6.6665 31.8753 7.95817 34.4587 10.5415C37.042 13.1248 38.3337 16.2776 38.3337 19.9998C38.3337 23.7221 37.042 26.8748 34.4587 29.4582C31.8753 32.0415 28.7225 33.3332 25.0003 33.3332ZM10.8337 32.5415C8.08366 31.8193 5.86838 30.2846 4.18783 27.9373C2.50727 25.5901 1.66699 22.9443 1.66699 19.9998C1.66699 17.0554 2.50727 14.4096 4.18783 12.0623C5.86838 9.71512 8.08366 8.18039 10.8337 7.45817C11.2225 7.34706 11.5559 7.40956 11.8337 7.64567C12.1114 7.88178 12.2503 8.20817 12.2503 8.62484C12.2503 8.87484 12.16 9.11095 11.9795 9.33317C11.7989 9.55539 11.5837 9.70817 11.3337 9.7915C9.16699 10.4304 7.43088 11.7012 6.12533 13.604C4.81977 15.5068 4.16699 17.6387 4.16699 19.9998C4.16699 22.3609 4.81977 24.4929 6.12533 26.3957C7.43088 28.2984 9.16699 29.5693 11.3337 30.2082C11.5837 30.2915 11.7989 30.4373 11.9795 30.6457C12.16 30.854 12.2503 31.0971 12.2503 31.3748C12.2503 31.7915 12.1114 32.1179 11.8337 32.354C11.5559 32.5901 11.2225 32.6526 10.8337 32.5415Z" fill="#E8B305"/>
</svg>
