<svg width="35" height="35" viewBox="0 0 35 35" fill="none" xmlns="http://www.w3.org/2000/svg">
<path d="M8.02051 30.625C7.41287 30.625 6.89638 30.4123 6.47103 29.987C6.04568 29.5616 5.83301 29.0451 5.83301 28.4375V14.2188C5.83301 13.8785 5.912 13.5503 6.06999 13.2344C6.22797 12.9184 6.44065 12.6632 6.70801 12.4687L16.1872 5.35937C16.3816 5.21354 16.5882 5.10417 16.807 5.03125C17.0257 4.95833 17.2566 4.92188 17.4997 4.92188C17.7427 4.92188 17.9736 4.95833 18.1924 5.03125C18.4111 5.10417 18.6177 5.21354 18.8122 5.35937L28.2913 12.4687C28.5587 12.6632 28.7714 12.9184 28.9294 13.2344C29.0873 13.5503 29.1663 13.8785 29.1663 14.2188V28.4375C29.1663 29.0451 28.9537 29.5616 28.5283 29.987C28.103 30.4123 27.5865 30.625 26.9788 30.625H20.4163V20.4167H14.583V30.625H8.02051Z" fill="#F4CFE9" fill-opacity="0.8"/>
</svg>
