<svg width="35" height="35" viewBox="0 0 35 35" fill="none" xmlns="http://www.w3.org/2000/svg">
<path d="M5.10449 29.1668C4.52116 29.1668 4.01074 28.9481 3.57324 28.5106C3.13574 28.0731 2.91699 27.5627 2.91699 26.9793V8.021C2.91699 7.43766 3.13574 6.92725 3.57324 6.48975C4.01074 6.05225 4.52116 5.8335 5.10449 5.8335H29.8962C30.4795 5.8335 30.9899 6.05225 31.4274 6.48975C31.8649 6.92725 32.0837 7.43766 32.0837 8.021V26.9793C32.0837 27.5627 31.8649 28.0731 31.4274 28.5106C30.9899 28.9481 30.4795 29.1668 29.8962 29.1668H5.10449ZM5.10449 26.9793H21.9118V21.0366H5.10449V26.9793ZM24.0993 26.9793H29.8962V12.9064H24.0993V26.9793ZM5.10449 18.8491H21.9118V12.9064H5.10449V18.8491Z" fill="#F4CFE9" fill-opacity="0.8"/>
</svg>
