<svg width="186" height="186" viewBox="0 0 186 186" fill="none" xmlns="http://www.w3.org/2000/svg">
<circle cx="93" cy="93" r="93" fill="#8855BF"/>
<path d="M90.4166 137.5C89.236 137.5 88.2291 137.083 87.3958 136.25C86.5624 135.417 86.1458 134.41 86.1458 133.229C86.1458 132.743 86.2499 132.24 86.4583 131.719C86.6666 131.198 86.9791 130.729 87.3958 130.312L106.667 111.042L104.479 108.854L85.2083 128.125C84.7916 128.542 84.3402 128.854 83.8541 129.062C83.368 129.271 82.8471 129.375 82.2916 129.375C81.111 129.375 80.1214 128.976 79.3228 128.177C78.5242 127.378 78.1249 126.389 78.1249 125.208C78.1249 124.514 78.2291 123.941 78.4374 123.49C78.6458 123.038 78.9235 122.639 79.2708 122.292L98.5416 103.021L96.3541 100.833L77.0833 120C76.6666 120.417 76.2152 120.729 75.7291 120.937C75.243 121.146 74.6874 121.25 74.0624 121.25C72.9513 121.25 71.9791 120.833 71.1458 120C70.3124 119.167 69.8958 118.194 69.8958 117.083C69.8958 116.528 69.9999 116.007 70.2083 115.521C70.4166 115.035 70.7291 114.583 71.1458 114.167L90.4166 94.8958L88.2291 92.7083L69.0624 111.979C68.7152 112.326 68.2985 112.604 67.8124 112.812C67.3263 113.021 66.736 113.125 66.0416 113.125C64.861 113.125 63.8714 112.743 63.0728 111.979C62.2742 111.215 61.8749 110.243 61.8749 109.062C61.8749 108.507 61.9791 107.986 62.1874 107.5C62.3958 107.014 62.7083 106.562 63.1249 106.146L86.3541 82.9167L99.5833 96.1458C100.347 96.9097 101.198 97.5521 102.135 98.0729C103.073 98.5938 104.201 98.8542 105.521 98.8542C107.743 98.8542 109.618 98.1424 111.146 96.7187C112.674 95.2951 113.437 93.3681 113.437 90.9375C113.437 89.9653 113.246 89.0104 112.865 88.0729C112.483 87.1354 111.84 86.2153 110.937 85.3125L92.2916 66.6667L92.9166 65.9375C94.0971 64.8264 95.4166 63.9757 96.8749 63.3854C98.3333 62.7951 99.7916 62.5 101.25 62.5C103.055 62.5 104.722 62.7951 106.25 63.3854C107.778 63.9757 109.167 64.8958 110.417 66.1458L128.021 83.8542C129.271 85.1042 130.191 86.4931 130.781 88.0208C131.371 89.5486 131.667 91.3194 131.667 93.3333C131.667 94.7222 131.354 96.1285 130.729 97.5521C130.104 98.9757 129.201 100.278 128.021 101.458L93.3333 136.25C92.7777 136.806 92.2916 137.153 91.8749 137.292C91.4583 137.431 90.9721 137.5 90.4166 137.5V137.5ZM57.6041 107.083L51.9791 101.458C50.7985 100.347 49.8958 99.0278 49.2708 97.5C48.6458 95.9722 48.3333 94.375 48.3333 92.7083C48.3333 90.9028 48.6805 89.2361 49.3749 87.7083C50.0694 86.1806 50.9374 84.8958 51.9791 83.8542L69.5833 66.1458C70.6944 65.0347 72.0138 64.1493 73.5416 63.4896C75.0694 62.8299 76.5624 62.5 78.0208 62.5C79.8958 62.5 81.5624 62.7604 83.0208 63.2812C84.4791 63.8021 85.9027 64.7569 87.2916 66.1458L108.646 87.5C109.271 88.125 109.705 88.7153 109.948 89.2708C110.191 89.8264 110.312 90.3819 110.312 90.9375C110.312 92.3264 109.861 93.4722 108.958 94.375C108.055 95.2778 106.91 95.7292 105.521 95.7292C104.896 95.7292 104.253 95.5729 103.594 95.2604C102.934 94.9479 102.292 94.4792 101.667 93.8542L86.2499 78.4375L57.6041 107.083Z" fill="#F4CFE3"/>
</svg>
