<svg width="30" height="30" viewBox="0 0 30 30" fill="none" xmlns="http://www.w3.org/2000/svg">
<path d="M12.1875 19.7812C12 19.5938 11.9062 19.3646 11.9062 19.0938C11.9062 18.8229 12 18.6042 12.1875 18.4375L14.6875 15.9375H4.6875C4.41667 15.9375 4.19271 15.849 4.01563 15.6719C3.83854 15.4948 3.75 15.2708 3.75 15C3.75 14.7292 3.83854 14.5052 4.01563 14.3281C4.19271 14.151 4.41667 14.0625 4.6875 14.0625H14.625L12.0938 11.5313C11.9271 11.3646 11.8438 11.151 11.8438 10.8906C11.8438 10.6302 11.9375 10.4063 12.125 10.2188C12.3125 10.0312 12.5365 9.9375 12.7969 9.9375C13.0573 9.9375 13.2812 10.0312 13.4688 10.2188L17.625 14.375C17.7292 14.4792 17.8021 14.5833 17.8438 14.6875C17.8854 14.7917 17.9062 14.9062 17.9062 15.0312C17.9062 15.1562 17.8854 15.2708 17.8438 15.375C17.8021 15.4792 17.7292 15.5833 17.625 15.6875L13.5 19.8125C13.3333 19.9792 13.1198 20.0625 12.8594 20.0625C12.599 20.0625 12.375 19.9688 12.1875 19.7812ZM16.2188 26.25C15.9479 26.25 15.724 26.1615 15.5469 25.9844C15.3698 25.8073 15.2812 25.5833 15.2812 25.3125C15.2812 25.0417 15.3698 24.8177 15.5469 24.6406C15.724 24.4635 15.9479 24.375 16.2188 24.375H24.375V5.625H16.2188C15.9479 5.625 15.724 5.53646 15.5469 5.35937C15.3698 5.18229 15.2812 4.95833 15.2812 4.6875C15.2812 4.41667 15.3698 4.19271 15.5469 4.01563C15.724 3.83854 15.9479 3.75 16.2188 3.75H24.375C24.875 3.75 25.3125 3.9375 25.6875 4.3125C26.0625 4.6875 26.25 5.125 26.25 5.625V24.375C26.25 24.875 26.0625 25.3125 25.6875 25.6875C25.3125 26.0625 24.875 26.25 24.375 26.25H16.2188Z" fill="white"/>
</svg>
