<svg width="35" height="35" viewBox="0 0 35 35" fill="none" xmlns="http://www.w3.org/2000/svg">
<path d="M23.5156 23.0781C23.2969 22.8594 23.1875 22.592 23.1875 22.276C23.1875 21.9601 23.2969 21.7049 23.5156 21.5104L26.4323 18.5938H14.7656C14.4497 18.5938 14.1884 18.4905 13.9818 18.2839C13.7752 18.0773 13.6719 17.816 13.6719 17.5C13.6719 17.184 13.7752 16.9227 13.9818 16.7161C14.1884 16.5095 14.4497 16.4062 14.7656 16.4062H26.3594L23.4062 13.4531C23.2118 13.2587 23.1146 13.0095 23.1146 12.7057C23.1146 12.4019 23.224 12.1406 23.4427 11.9219C23.6615 11.7031 23.9227 11.5938 24.2266 11.5938C24.5304 11.5938 24.7917 11.7031 25.0104 11.9219L29.8594 16.7708C29.9809 16.8924 30.066 17.0139 30.1146 17.1354C30.1632 17.2569 30.1875 17.3906 30.1875 17.5365C30.1875 17.6823 30.1632 17.816 30.1146 17.9375C30.066 18.059 29.9809 18.1806 29.8594 18.3021L25.0469 23.1146C24.8524 23.309 24.6033 23.4062 24.2995 23.4062C23.9957 23.4062 23.7344 23.2969 23.5156 23.0781ZM6.5625 30.625C5.97917 30.625 5.46875 30.4062 5.03125 29.9688C4.59375 29.5312 4.375 29.0208 4.375 28.4375V6.5625C4.375 5.97917 4.59375 5.46875 5.03125 5.03125C5.46875 4.59375 5.97917 4.375 6.5625 4.375H16.0781C16.3941 4.375 16.6554 4.4783 16.862 4.6849C17.0686 4.89149 17.1719 5.15278 17.1719 5.46875C17.1719 5.78472 17.0686 6.04601 16.862 6.2526C16.6554 6.4592 16.3941 6.5625 16.0781 6.5625H6.5625V28.4375H16.0781C16.3941 28.4375 16.6554 28.5408 16.862 28.7474C17.0686 28.954 17.1719 29.2153 17.1719 29.5312C17.1719 29.8472 17.0686 30.1085 16.862 30.3151C16.6554 30.5217 16.3941 30.625 16.0781 30.625H6.5625Z" fill="#D8D3DD" fill-opacity="0.7"/>
</svg>
