<svg width="35" height="35" viewBox="0 0 35 35" fill="none" xmlns="http://www.w3.org/2000/svg">
<path d="M8.02051 32.0832C7.43717 32.0832 6.92676 31.8644 6.48926 31.4269C6.05176 30.9894 5.83301 30.479 5.83301 29.8957V5.104C5.83301 4.52067 6.05176 4.01025 6.48926 3.57275C6.92676 3.13525 7.43717 2.9165 8.02051 2.9165H20.2705C20.5622 2.9165 20.8478 2.97727 21.1273 3.0988C21.4068 3.22032 21.6438 3.37831 21.8382 3.57275L28.5101 10.2446C28.7045 10.4391 28.8625 10.6761 28.984 10.9556C29.1056 11.2351 29.1663 11.5207 29.1663 11.8123V29.8957C29.1663 30.479 28.9476 30.9894 28.5101 31.4269C28.0726 31.8644 27.5622 32.0832 26.9788 32.0832H8.02051ZM20.0882 10.7915C20.0882 11.1075 20.1915 11.3688 20.3981 11.5754C20.6047 11.782 20.866 11.8853 21.182 11.8853H26.9788L20.0882 5.104V10.7915ZM15.8226 22.8592L12.7601 19.7967C12.6629 19.6995 12.5535 19.6266 12.432 19.578C12.3104 19.5294 12.1889 19.505 12.0674 19.505C11.9459 19.505 11.8243 19.5354 11.7028 19.5962C11.5813 19.657 11.4719 19.7359 11.3747 19.8332C11.1802 20.0276 11.083 20.2646 11.083 20.5441C11.083 20.8236 11.1802 21.0606 11.3747 21.255L15.057 24.9373C15.1785 25.0589 15.3 25.1439 15.4215 25.1925C15.5431 25.2412 15.6768 25.2655 15.8226 25.2655C15.9684 25.2655 16.1021 25.2412 16.2236 25.1925C16.3452 25.1439 16.4667 25.0589 16.5882 24.9373L23.4788 18.0467C23.6733 17.8523 23.7705 17.6153 23.7705 17.3358C23.7705 17.0563 23.6733 16.8193 23.4788 16.6248C23.2844 16.4304 23.0474 16.3332 22.7679 16.3332C22.4884 16.3332 22.2514 16.4304 22.057 16.6248L15.8226 22.8592Z" fill="#F4CFE9" fill-opacity="0.8"/>
</svg>
