<svg width="40" height="40" viewBox="0 0 40 40" fill="none" xmlns="http://www.w3.org/2000/svg">
<path d="M7.91699 31.6668C7.55588 31.6668 7.25727 31.5488 7.02116 31.3127C6.78505 31.0766 6.66699 30.7779 6.66699 30.4168C6.66699 30.0557 6.78505 29.7571 7.02116 29.521C7.25727 29.2849 7.55588 29.1668 7.91699 29.1668H10.167V16.4168C10.167 14.1391 10.8545 12.0766 12.2295 10.2293C13.6045 8.38211 15.417 7.22239 17.667 6.75016V5.54183C17.667 4.90294 17.8962 4.37516 18.3545 3.9585C18.8128 3.54183 19.3614 3.3335 20.0003 3.3335C20.6392 3.3335 21.1878 3.54183 21.6462 3.9585C22.1045 4.37516 22.3337 4.90294 22.3337 5.54183V6.75016C24.5837 7.22239 26.4031 8.38211 27.792 10.2293C29.1809 12.0766 29.8753 14.1391 29.8753 16.4168V29.1668H32.0837C32.4448 29.1668 32.7434 29.2849 32.9795 29.521C33.2156 29.7571 33.3337 30.0557 33.3337 30.4168C33.3337 30.7779 33.2156 31.0766 32.9795 31.3127C32.7434 31.5488 32.4448 31.6668 32.0837 31.6668H7.91699ZM20.0003 36.6668C19.1114 36.6668 18.3337 36.3404 17.667 35.6877C17.0003 35.0349 16.667 34.2502 16.667 33.3335H23.3337C23.3337 34.2502 23.0073 35.0349 22.3545 35.6877C21.7017 36.3404 20.917 36.6668 20.0003 36.6668Z" fill="#F4CFE9"/>
</svg>
