<svg width="186" height="186" viewBox="0 0 186 186" fill="none" xmlns="http://www.w3.org/2000/svg">
<circle cx="93" cy="93" r="93" fill="#8855BF"/>
<path d="M81.8541 89.8749H116.75C117.653 89.8749 118.399 89.5798 118.99 88.9895C119.58 88.3992 119.875 87.6527 119.875 86.7499C119.875 85.8471 119.58 85.1006 118.99 84.5103C118.399 83.9201 117.653 83.6249 116.75 83.6249H81.8541C80.9513 83.6249 80.2048 83.9201 79.6145 84.5103C79.0242 85.1006 78.7291 85.8471 78.7291 86.7499C78.7291 87.6527 79.0242 88.3992 79.6145 88.9895C80.2048 89.5798 80.9513 89.8749 81.8541 89.8749ZM81.8541 99.2499H99.0416C99.9444 99.2499 100.691 98.9548 101.281 98.3645C101.871 97.7742 102.167 97.0277 102.167 96.1249C102.167 95.2221 101.871 94.4756 101.281 93.8853C100.691 93.2951 99.9444 92.9999 99.0416 92.9999H81.8541C80.9513 92.9999 80.2048 93.2951 79.6145 93.8853C79.0242 94.4756 78.7291 95.2221 78.7291 96.1249C78.7291 97.0277 79.0242 97.7742 79.6145 98.3645C80.2048 98.9548 80.9513 99.2499 81.8541 99.2499ZM81.8541 80.4999H116.75C117.653 80.4999 118.399 80.2048 118.99 79.6145C119.58 79.0242 119.875 78.2777 119.875 77.3749C119.875 76.4721 119.58 75.7256 118.99 75.1353C118.399 74.5451 117.653 74.2499 116.75 74.2499H81.8541C80.9513 74.2499 80.2048 74.5451 79.6145 75.1353C79.0242 75.7256 78.7291 76.4721 78.7291 77.3749C78.7291 78.2777 79.0242 79.0242 79.6145 79.6145C80.2048 80.2048 80.9513 80.4999 81.8541 80.4999ZM70.0833 122.167C68.4166 122.167 66.9583 121.542 65.7083 120.292C64.4583 119.042 63.8333 117.583 63.8333 115.917V57.5833C63.8333 55.9166 64.4583 54.4583 65.7083 53.2083C66.9583 51.9583 68.4166 51.3333 70.0833 51.3333H128.417C130.083 51.3333 131.542 51.9583 132.792 53.2083C134.042 54.4583 134.667 55.9166 134.667 57.5833V115.917C134.667 117.583 134.042 119.042 132.792 120.292C131.542 121.542 130.083 122.167 128.417 122.167H70.0833ZM57.5833 134.667C55.9166 134.667 54.4583 134.042 53.2083 132.792C51.9583 131.542 51.3333 130.083 51.3333 128.417V66.9583C51.3333 66.0555 51.6284 65.3089 52.2187 64.7187C52.8089 64.1284 53.5555 63.8333 54.4583 63.8333C55.361 63.8333 56.1076 64.1284 56.6978 64.7187C57.2881 65.3089 57.5833 66.0555 57.5833 66.9583V128.417H119.042C119.944 128.417 120.691 128.712 121.281 129.302C121.871 129.892 122.167 130.639 122.167 131.542C122.167 132.444 121.871 133.191 121.281 133.781C120.691 134.371 119.944 134.667 119.042 134.667H57.5833Z" fill="#ECC8DD"/>
</svg>
