<svg width="186" height="186" viewBox="0 0 186 186" fill="none" xmlns="http://www.w3.org/2000/svg">
<circle cx="93" cy="93" r="93" fill="#8855BF"/>
<path d="M92.8958 122.896C93.6596 122.896 94.3194 122.601 94.8749 122.01C95.4305 121.42 95.7083 120.743 95.7083 119.979V117.479C99.8749 116.993 103.156 115.587 105.552 113.26C107.948 110.934 109.146 107.965 109.146 104.354C109.146 100.743 108.156 97.861 106.177 95.7083C104.198 93.5555 100.778 91.6805 95.9166 90.0833C91.5416 88.6249 88.5381 87.1839 86.9062 85.7603C85.2742 84.3367 84.4583 82.4791 84.4583 80.1874C84.4583 78.0346 85.2395 76.3506 86.802 75.1353C88.3645 73.9201 90.4999 73.3124 93.2083 73.3124C94.8749 73.3124 96.368 73.6249 97.6874 74.2499C99.0069 74.8749 100.153 75.8124 101.125 77.0624C101.611 77.618 102.201 77.9999 102.896 78.2083C103.59 78.4166 104.25 78.3471 104.875 77.9999C105.639 77.6527 106.142 77.0971 106.385 76.3333C106.628 75.5694 106.507 74.8749 106.021 74.2499C104.84 72.5833 103.399 71.2638 101.698 70.2916C99.9964 69.3194 98.0694 68.7291 95.9166 68.5208V66.0208C95.9166 65.2569 95.6388 64.5971 95.0833 64.0416C94.5277 63.486 93.868 63.2083 93.1041 63.2083C92.3402 63.2083 91.6631 63.486 91.0728 64.0416C90.4826 64.5971 90.1874 65.2569 90.1874 66.0208V68.5208C86.6458 69.0069 83.8506 70.2916 81.802 72.3749C79.7534 74.4583 78.7291 77.0624 78.7291 80.1874C78.7291 83.5902 79.6145 86.2985 81.3853 88.3124C83.1562 90.3263 86.4374 92.236 91.2291 94.0416C96.1596 95.9166 99.4235 97.5485 101.021 98.9374C102.618 100.326 103.417 102.132 103.417 104.354C103.417 106.646 102.479 108.573 100.604 110.135C98.7291 111.698 96.4374 112.479 93.7291 112.479C91.4374 112.479 89.3367 111.924 87.427 110.812C85.5173 109.701 84.0416 108.139 82.9999 106.125C82.6527 105.569 82.1839 105.135 81.5937 104.823C81.0034 104.51 80.3958 104.458 79.7708 104.667C78.868 105.014 78.2603 105.552 77.9478 106.281C77.6353 107.01 77.7221 107.757 78.2083 108.521C79.5971 110.812 81.2464 112.67 83.1562 114.094C85.0659 115.517 87.3402 116.576 89.9791 117.271V120.083C89.9791 120.847 90.2742 121.507 90.8645 122.062C91.4548 122.618 92.1319 122.896 92.8958 122.896ZM92.9999 134.667C87.0971 134.667 81.611 133.608 76.5416 131.49C71.4721 129.371 67.0624 126.437 63.3124 122.687C59.5624 118.937 56.6284 114.528 54.5103 109.458C52.3923 104.389 51.3333 98.9027 51.3333 92.9999C51.3333 87.1666 52.3923 81.7152 54.5103 76.6458C56.6284 71.5763 59.5624 67.1666 63.3124 63.4166C67.0624 59.6666 71.4721 56.7152 76.5416 54.5624C81.611 52.4096 87.0971 51.3333 92.9999 51.3333C98.8333 51.3333 104.285 52.4096 109.354 54.5624C114.424 56.7152 118.833 59.6666 122.583 63.4166C126.333 67.1666 129.285 71.5763 131.437 76.6458C133.59 81.7152 134.667 87.1666 134.667 92.9999C134.667 98.9027 133.59 104.389 131.437 109.458C129.285 114.528 126.333 118.937 122.583 122.687C118.833 126.437 114.424 129.371 109.354 131.49C104.285 133.608 98.8333 134.667 92.9999 134.667Z" fill="#F4CFE3"/>
</svg>
