<svg width="35" height="35" viewBox="0 0 35 35" fill="none" xmlns="http://www.w3.org/2000/svg">
<path d="M17.4997 17.4634C15.8955 17.4634 14.583 16.953 13.5622 15.9321C12.5413 14.9113 12.0309 13.5988 12.0309 11.9946C12.0309 10.3905 12.5413 9.07796 13.5622 8.05713C14.583 7.0363 15.8955 6.52588 17.4997 6.52588C19.1038 6.52588 20.4163 7.0363 21.4372 8.05713C22.458 9.07796 22.9684 10.3905 22.9684 11.9946C22.9684 13.5988 22.458 14.9113 21.4372 15.9321C20.4163 16.953 19.1038 17.4634 17.4997 17.4634ZM8.02051 29.1665C7.41287 29.1665 6.89638 28.9538 6.47103 28.5285C6.04568 28.1031 5.83301 27.5866 5.83301 26.979V25.7394C5.83301 24.8158 6.06391 24.0259 6.52572 23.3696C6.98752 22.7134 7.58301 22.2151 8.31217 21.8748C9.94065 21.1457 11.5023 20.5988 12.9971 20.2342C14.4919 19.8696 15.9927 19.6873 17.4997 19.6873C19.0066 19.6873 20.5014 19.8757 21.984 20.2524C23.4667 20.6292 25.0222 21.17 26.6507 21.8748C27.4042 22.2151 28.0118 22.7134 28.4736 23.3696C28.9354 24.0259 29.1663 24.8158 29.1663 25.7394V26.979C29.1663 27.5866 28.9537 28.1031 28.5283 28.5285C28.103 28.9538 27.5865 29.1665 26.9788 29.1665H8.02051Z" fill="#CFADCB"/>
</svg>
