<svg width="35" height="35" viewBox="0 0 35 35" fill="none" xmlns="http://www.w3.org/2000/svg">
<path d="M10.4635 32.0467C9.73437 32.0467 9.11458 31.7915 8.60417 31.2811C8.09375 30.7707 7.83854 30.1509 7.83854 29.4217C7.83854 28.6925 8.09375 28.0728 8.60417 27.5623C9.11458 27.0519 9.73437 26.7967 10.4635 26.7967C11.1684 26.7967 11.7821 27.0519 12.3047 27.5623C12.8273 28.0728 13.0885 28.6925 13.0885 29.4217C13.0885 30.1509 12.8333 30.7707 12.3229 31.2811C11.8125 31.7915 11.1927 32.0467 10.4635 32.0467ZM25.0469 32.0467C24.3177 32.0467 23.6979 31.7915 23.1875 31.2811C22.6771 30.7707 22.4219 30.1509 22.4219 29.4217C22.4219 28.6925 22.6771 28.0728 23.1875 27.5623C23.6979 27.0519 24.3177 26.7967 25.0469 26.7967C25.7517 26.7967 26.3654 27.0519 26.888 27.5623C27.4106 28.0728 27.6719 28.6925 27.6719 29.4217C27.6719 30.1509 27.4167 30.7707 26.9062 31.2811C26.3958 31.7915 25.776 32.0467 25.0469 32.0467ZM10.099 24.4634C9.07812 24.4634 8.34288 24.1231 7.89323 23.4425C7.44358 22.762 7.44965 21.9964 7.91146 21.1457L10.2448 16.8436L4.70312 5.104H2.91667C2.625 5.104 2.37587 4.99463 2.16927 4.77588C1.96267 4.55713 1.85938 4.28977 1.85938 3.9738C1.85938 3.68213 1.96267 3.433 2.16927 3.2264C2.37587 3.0198 2.63715 2.9165 2.95313 2.9165H5.43229C5.65104 2.9165 5.84549 2.97119 6.01562 3.08057C6.18576 3.18994 6.31944 3.34185 6.41667 3.5363L7.47396 5.79671H28.9479C29.7257 5.79671 30.2179 6.03369 30.4245 6.50765C30.6311 6.98161 30.5642 7.51025 30.224 8.09359L25.3021 16.953C25.059 17.3662 24.7187 17.7247 24.2812 18.0285C23.8437 18.3323 23.3698 18.4842 22.8594 18.4842H11.8125L9.77083 22.2759H26.6146C26.9062 22.2759 27.1554 22.3853 27.362 22.604C27.5686 22.8228 27.6719 23.078 27.6719 23.3696C27.6719 23.6856 27.5686 23.9469 27.362 24.1535C27.1554 24.3601 26.8941 24.4634 26.5781 24.4634H10.099Z" fill="#F4CFE9" fill-opacity="0.8"/>
</svg>
