<svg width="40" height="40" viewBox="0 0 40 40" fill="none" xmlns="http://www.w3.org/2000/svg">
<path d="M16.25 4.1665C15.8889 4.1665 15.5903 4.04845 15.3542 3.81234C15.1181 3.57623 15 3.27762 15 2.9165C15 2.55539 15.1181 2.25678 15.3542 2.02067C15.5903 1.78456 15.8889 1.6665 16.25 1.6665H23.75C24.1111 1.6665 24.4097 1.78456 24.6458 2.02067C24.8819 2.25678 25 2.55539 25 2.9165C25 3.27762 24.8819 3.57623 24.6458 3.81234C24.4097 4.04845 24.1111 4.1665 23.75 4.1665H16.25ZM20 22.7915C20.3611 22.7915 20.6597 22.6734 20.8958 22.4373C21.1319 22.2012 21.25 21.9026 21.25 21.5415V14.4582C21.25 14.0971 21.1319 13.7984 20.8958 13.5623C20.6597 13.3262 20.3611 13.2082 20 13.2082C19.6389 13.2082 19.3403 13.3262 19.1042 13.5623C18.8681 13.7984 18.75 14.0971 18.75 14.4582V21.5415C18.75 21.9026 18.8681 22.2012 19.1042 22.4373C19.3403 22.6734 19.6389 22.7915 20 22.7915ZM20 36.6248C17.9444 36.6248 16.0069 36.229 14.1875 35.4373C12.3681 34.6457 10.7778 33.5693 9.41667 32.2082C8.05556 30.8471 6.97917 29.2568 6.1875 27.4373C5.39583 25.6179 5 23.6804 5 21.6248C5 19.5693 5.39583 17.6318 6.1875 15.8123C6.97917 13.9929 8.05556 12.4026 9.41667 11.0415C10.7778 9.68039 12.3681 8.604 14.1875 7.81234C16.0069 7.02067 17.9444 6.62484 20 6.62484C21.8611 6.62484 23.6042 6.93039 25.2292 7.5415C26.8542 8.15262 28.3056 9.01373 29.5833 10.1248L30.8333 8.87484C31.0833 8.62484 31.375 8.49984 31.7083 8.49984C32.0417 8.49984 32.3472 8.62484 32.625 8.87484C32.8472 9.12484 32.9583 9.43039 32.9583 9.7915C32.9583 10.1526 32.8472 10.4443 32.625 10.6665L31.375 11.9165C32.375 13.0276 33.2292 14.3748 33.9375 15.9582C34.6458 17.5415 35 19.4304 35 21.6248C35 23.6804 34.6042 25.6179 33.8125 27.4373C33.0208 29.2568 31.9444 30.8471 30.5833 32.2082C29.2222 33.5693 27.6319 34.6457 25.8125 35.4373C23.9931 36.229 22.0556 36.6248 20 36.6248Z" fill="#F4CFE9"/>
</svg>
