<svg width="101" height="100" viewBox="0 0 101 100" fill="none" xmlns="http://www.w3.org/2000/svg">
<path d="M7.5835 83.3333C6.68072 83.3333 5.93419 83.0381 5.34391 82.4478C4.75364 81.8576 4.4585 81.111 4.4585 80.2083V73.5416C4.4585 71.111 5.0835 68.9062 6.3335 66.927C7.5835 64.9478 9.31961 63.4721 11.5418 62.4999C16.6113 60.2777 21.1772 58.6805 25.2397 57.7083C29.3022 56.736 33.4863 56.2499 37.7918 56.2499C42.0974 56.2499 46.264 56.736 50.2918 57.7083C54.3196 58.6805 58.8682 60.2777 63.9377 62.4999C66.1599 63.4721 67.9134 64.9478 69.1981 66.927C70.4828 68.9062 71.1252 71.111 71.1252 73.5416V80.2083C71.1252 81.111 70.83 81.8576 70.2397 82.4478C69.6495 83.0381 68.9029 83.3333 68.0002 83.3333H7.5835ZM75.0835 83.3333C75.7779 83.1944 76.3335 82.8298 76.7502 82.2395C77.1668 81.6492 77.3752 80.9027 77.3752 79.9999V73.5416C77.3752 69.1666 76.264 65.5728 74.0418 62.7603C71.8196 59.9478 68.9029 57.6735 65.2918 55.9374C70.0835 56.493 74.5974 57.309 78.8335 58.3853C83.0696 59.4617 86.5071 60.6944 89.146 62.0833C91.4377 63.4027 93.2432 65.0346 94.5627 66.9791C95.8821 68.9235 96.5418 71.111 96.5418 73.5416V80.2083C96.5418 81.111 96.2467 81.8576 95.6564 82.4478C95.0661 83.0381 94.3196 83.3333 93.4168 83.3333H75.0835ZM37.7918 49.8958C33.2085 49.8958 29.4585 48.4374 26.5418 45.5208C23.6252 42.6041 22.1668 38.8541 22.1668 34.2708C22.1668 29.6874 23.6252 25.9374 26.5418 23.0208C29.4585 20.1041 33.2085 18.6458 37.7918 18.6458C42.3752 18.6458 46.1252 20.1041 49.0418 23.0208C51.9585 25.9374 53.4168 29.6874 53.4168 34.2708C53.4168 38.8541 51.9585 42.6041 49.0418 45.5208C46.1252 48.4374 42.3752 49.8958 37.7918 49.8958ZM75.2918 34.2708C75.2918 38.8541 73.8335 42.6041 70.9168 45.5208C68.0002 48.4374 64.2502 49.8958 59.6668 49.8958C58.9029 49.8958 58.0522 49.8437 57.1147 49.7395C56.1772 49.6353 55.3266 49.4444 54.5627 49.1666C56.2293 47.4305 57.4967 45.2951 58.3647 42.7603C59.2328 40.2256 59.6668 37.3958 59.6668 34.2708C59.6668 31.1458 59.2328 28.3853 58.3647 25.9895C57.4967 23.5937 56.2293 21.3888 54.5627 19.3749C55.3266 19.1666 56.1772 18.993 57.1147 18.8541C58.0522 18.7152 58.9029 18.6458 59.6668 18.6458C64.2502 18.6458 68.0002 20.1041 70.9168 23.0208C73.8335 25.9374 75.2918 29.6874 75.2918 34.2708Z" fill="#8855BF"/>
</svg>
