<svg width="100" height="100" viewBox="0 0 100 100" fill="none" xmlns="http://www.w3.org/2000/svg">
<path d="M37.4999 72.2916H61.4583C62.4305 72.2916 63.2464 72.0833 63.9062 71.6666C64.5659 71.2499 65.1388 70.6249 65.6249 69.7916L73.7499 50.8333C73.8888 50.486 74.0103 49.9652 74.1145 49.2708C74.2187 48.5763 74.2708 48.0555 74.2708 47.7083V45.2083C74.2708 44.236 74.0451 43.5242 73.5937 43.0728C73.1423 42.6214 72.4305 42.3958 71.4583 42.3958H49.1666L52.1874 28.0208C52.3263 27.4652 52.3263 26.9444 52.1874 26.4583C52.0485 25.9721 51.8055 25.5555 51.4583 25.2083L49.2708 22.9166L32.4999 41.0416L31.6666 42.7083C31.3888 43.2638 31.2499 43.8541 31.2499 44.4791V66.0416C31.2499 67.6388 31.8749 69.0798 33.1249 70.3645C34.3749 71.6492 35.8333 72.2916 37.4999 72.2916ZM49.9999 91.6666C44.3055 91.6666 38.9235 90.5728 33.8541 88.3853C28.7846 86.1978 24.3576 83.2117 20.5728 79.427C16.7881 75.6423 13.802 71.2152 11.6145 66.1458C9.427 61.0763 8.33325 55.6944 8.33325 49.9999C8.33325 44.236 9.427 38.8194 11.6145 33.7499C13.802 28.6805 16.7881 24.2708 20.5728 20.5208C24.3576 16.7708 28.7846 13.802 33.8541 11.6145C38.9235 9.427 44.3055 8.33325 49.9999 8.33325C55.7638 8.33325 61.1805 9.427 66.2499 11.6145C71.3194 13.802 75.7291 16.7708 79.4791 20.5208C83.2291 24.2708 86.1978 28.6805 88.3853 33.7499C90.5728 38.8194 91.6666 44.236 91.6666 49.9999C91.6666 55.6944 90.5728 61.0763 88.3853 66.1458C86.1978 71.2152 83.2291 75.6423 79.4791 79.427C75.7291 83.2117 71.3194 86.1978 66.2499 88.3853C61.1805 90.5728 55.7638 91.6666 49.9999 91.6666Z" fill="#8855BF"/>
</svg>
